/* XPM */
static char *result[] = {
/* columns rows colors chars-per-pixel */
"16 16 58 1 ",
"  c #949A00000000",
". c #960B00000000",
"X c #966900000000",
"o c #9C2D00000000",
"O c #9F5300000000",
"+ c #A4DA00000000",
"@ c #A6FF00000000",
"# c #A76100000000",
"$ c #A9A300000000",
"% c #AA7100000000",
"& c #ACB900000000",
"* c #AF9900000000",
"= c #B20800000000",
"- c #B2C700000000",
"; c #B3D800000000",
": c #B7D900000000",
"> c #B86900000000",
", c #BA6900000000",
"< c #BB8F00000000",
"1 c #BFDB00000000",
"2 c #C0AC00000000",
"3 c #C2F500000000",
"4 c #C37000000000",
"5 c #C45800000000",
"6 c #C79F00000000",
"7 c #C9AD00000000",
"8 c #CB3300000000",
"9 c #CCCF00000000",
"0 c #CFD100000000",
"q c #C9DB05A005A0",
"w c #D5E100000000",
"e c #D84F02420242",
"r c #D0ED03C803C8",
"t c #D5230FC20FC2",
"y c #E16700000000",
"u c #E3D300000000",
"i c #E5CB00000000",
"p c #E86702860286",
"a c #F57F00000000",
"s c #F1D905EC05EC",
"d c red",
"f c #FFFF15F015F0",
"g c #FFFF16FE16FE",
"h c #EA9327862786",
"j c #EB59383C383C",
"k c #FFFF32103210",
"l c #F0B746FC46FC",
"z c #FFFF4EFE4EFE",
"x c #FFFF595C595C",
"c c #FFFF5BDC5BDC",
"v c #FFFF5D9C5D9C",
"b c #FFFF5E535E53",
"n c #FFFF5F945F94",
"m c #FFFF66386638",
"M c #FFFF67946794",
"N c #FFFF71D071D0",
"B c #FFFF75207520",
"V c None",
/* pixels */
"VVVVVV9999VVVVVV",
"VVVV92*@@*wvVVVV",
"VV96+      $mcVV",
"VV6o  i.p   %9VV",
"V9+  0dtz-   #9V",
"V2   dslaB>   4V",
"9*   k,  hy   =9",
"9@   bgord2   $9",
"9@   fjqa3    $9",
"9*   N:Xdu    -9",
"Ve   b: %d>   5V",
"Vn$  8< &,1  $9V",
"VVM%  ; ;   O7VV",
"VVx9#      $79VV",
"VVVV94=$$-59VVVV",
"VVVVVV9999VVVVVV"
};
