/* XPM */
static char *result[] = {
/* columns rows colors chars-per-pixel */
"32 32 109 2 ",
"   c #949500000000",
".  c #957A00000000",
"X  c #969600000000",
"o  c #974100000000",
"O  c #98B300000000",
"+  c #99C300000000",
"@  c #9AB200000000",
"#  c #9B7C00000000",
"$  c #9D8100000000",
"%  c #9EEA00000000",
"&  c #9FEF00000000",
"*  c #A21D00000000",
"=  c #A27600000000",
"-  c #A3D600000000",
";  c #A4FA00000000",
":  c #A70B00000000",
">  c #A87600000000",
",  c #A97200000000",
"<  c #AC9000000000",
"1  c #ADB800000000",
"2  c #AF0D00000000",
"3  c #B0E000000000",
"4  c #B2EB00000000",
"5  c #B4B500000000",
"6  c #B65F00000000",
"7  c #B7C500000000",
"8  c #B9C600000000",
"9  c #BA3D00000000",
"0  c #BBD900000000",
"q  c #BCF800000000",
"w  c #BD6B00000000",
"e  c #BE6300000000",
"r  c #C02D00000000",
"t  c #BE6106900690",
"y  c #C0C000000000",
"u  c #C18A00000000",
"i  c #C3CC00000000",
"p  c #C4CA00000000",
"a  c #C5BD00000000",
"s  c #C6B500000000",
"d  c #C7BA00000000",
"f  c #C90B00000000",
"g  c #C99200000000",
"h  c #CAE200000000",
"j  c #CC0B00000000",
"k  c #CCCA00000000",
"l  c #C4430C2C0C2C",
"z  c #C5F60DEF0DEF",
"x  c #D11900000000",
"c  c #D5EF00000000",
"v  c #D81700000000",
"b  c #DB0F00000000",
"n  c #DD1F00000000",
"m  c #DDBF00000000",
"M  c #DFE800000000",
"N  c #D9D105B405B4",
"B  c #C68B12181218",
"V  c #C6B113341334",
"C  c #E0C500000000",
"Z  c #E62500000000",
"A  c #E3CD03CE03CE",
"S  c #F51B00000000",
"D  c #FB6B00000000",
"F  c #FC1B00000000",
"G  c #FFFD00000000",
"H  c #FFFF00A700A7",
"J  c #F9DD06BC06BC",
"K  c #FFFF0DBE0DBE",
"L  c #DBCF2F282F28",
"P  c #DE6132CA32CA",
"I  c #FFFF20522052",
"U  c #FFFF21022102",
"Y  c #FFFF252D252D",
"T  c #FFFF28782878",
"R  c #FFFF28B628B6",
"E  c #E83F3DAC3DAC",
"W  c #E9353E923E92",
"Q  c #F42930E230E2",
"!  c #F799365E365E",
"~  c #F9E33E083E08",
"^  c #FFFF450A450A",
"/  c #FFFF4DD04DD0",
"(  c #FFFF4FAD4FAD",
")  c #F35D523E523E",
"_  c #F379524A524A",
"`  c #FFFF50245024",
"'  c #FF45600C600C",
"]  c #FFFF631B631B",
"[  c #FFFF653A653A",
"{  c #FFFF669E669E",
"}  c #FFFF69086908",
"|  c #FFFF6A5C6A5C",
" . c #FFFF6BD26BD2",
".. c #FFFF6C886C88",
"X. c #FFFF6CF66CF6",
"o. c #FFFF76847684",
"O. c #FFFF7ACA7ACA",
"+. c #FFFF7BF47BF4",
"@. c #FFFF7D807D80",
"#. c #FFFF7FDE7FDE",
"$. c #FFFF80658065",
"%. c #FFFF816B816B",
"&. c #FFFF829A829A",
"*. c #FFFF83B183B1",
"=. c #FFFF84478447",
"-. c #FFFF856E856E",
";. c #FFFF86BF86BF",
":. c #FFFF8ACB8ACB",
">. c None",
/* pixels */
">.>.>.>.>.>.>.>.>.>.>.>.>.k k k k k k >.>.>.>.>.>.>.>.>.>.>.>.>.",
">.>.>.>.>.>.>.>.>.>.k k k k k k k k k k k k >.>.>.>.>.>.>.>.>.>.",
">.>.>.>.>.>.>.>.k k k k j i 0 7 7 0 p k k m %.O.>.>.>.>.>.>.>.>.",
">.>.>.>.>.>.k k k k r , O             + 1 ' &.M k >.>.>.>.>.>.>.",
">.>.>.>.>.k k k p -                       . 3 s Q :.&.>.>.>.>.>.",
">.>.>.>.k k k 7 X                             @ _ :.#.M >.>.>.>.",
">.>.>.k k k 4           9 F . X G e             X E n k >.>.>.>.",
">.>.>.k k 7             p G . o R z               . q k k >.>.>.",
">.>.k k i X             i G . o =.B                 O d k k >.>.",
">.>.k k -           G G G G Y @.-.I S 1               , k k >.>.",
">.k k r             G G G R ;.-.Y H ( *.5             . p k k >.",
">.k k ,             G G s z V d h x o.:.]               2 k k >.",
">.k j O             G T 5           t *.U -             $ k k >.",
"k k i               U ;.} +         5 U G :               f k >.",
"k k 0               | -.Y C     , 8 G G G X               y k k ",
"k k 7               [ Y H / 4   l U G G a                 q k k ",
"k k 7               K H ( :. .= & D G r                   q k k ",
"k k 0               G ` P + + Z G G <                     u k k ",
"k k p               ^ :.L     # G G G o                 . g k >.",
">.k k +             ..:.L       8 G G v                 % k k >.",
">.k k 2             X.*.N         Z G G 2               3 k k >.",
">.k A ] .           { U b         # G G G O           . s k k >.",
">.>.-.&.3           J G c ;     ; @ 6 G G j           < k k >.>.",
">.>.@.C s #             > h     h >                 @ f k k >.>.",
">.>.>.k ! ) X           > h     h >               X r k k >.>.>.",
">.>.>.~ :.:.W .         * 8     8 *             X 0 k k >.>.>.>.",
">.>.>.>.+.$.m q O                             @ y k k k >.>.>.>.",
">.>.>.>.>.M k k d , .                     . < g k k k >.>.>.>.>.",
">.>.>.>.>.>.>.k k k p 2 $           . % 3 s k k k >.>.>.>.>.>.>.",
">.>.>.>.>.>.>.>.k k k k k f y q w u g k k k k k >.>.>.>.>.>.>.>.",
">.>.>.>.>.>.>.>.>.>.k k k k k k k k k k k k >.>.>.>.>.>.>.>.>.>.",
">.>.>.>.>.>.>.>.>.>.>.>.>.>.k k k k >.>.>.>.>.>.>.>.>.>.>.>.>.>."
};
