/* XPM */
static char *result[] = {
/* columns rows colors chars-per-pixel */
"16 16 106 2 ",
"   c #565600000000",
".  c #575800000000",
"X  c #585800000000",
"o  c #595A00000000",
"O  c #5A5A00000000",
"+  c #5B5C00000000",
"@  c #5B5C01020102",
"#  c #5C5C00000000",
"$  c #5D5E00000000",
"%  c #5F6000000000",
"&  c #606000000000",
"*  c #626200000000",
"=  c #636400000000",
"-  c #656600000000",
";  c #676800000000",
":  c #606004040404",
">  c #6B6C00000000",
",  c #6E6E00000000",
"<  c #6F7000000000",
"1  c #727200000000",
"2  c #737400000000",
"3  c #707003040304",
"4  c #747400000000",
"5  c #747402020202",
"6  c #7A7A00000000",
"7  c #7D7E00000000",
"8  c #7C7C03040304",
"9  c #818100000000",
"0  c #828100000000",
"q  c #848300000000",
"w  c #868500000000",
"e  c #888700000000",
"r  c #8B8B00000000",
"t  c #8D8D00000000",
"y  c #8E8D00000000",
"u  c #8F8F00000000",
"i  c #87870A0A0A0A",
"p  c #807F0F100F10",
"a  c #908F00000000",
"s  c #929100000000",
"d  c #959500000000",
"f  c #989700000000",
"g  c #999900000000",
"h  c #9A9900000000",
"j  c #999906060606",
"k  c #9999090A090A",
"l  c #9F9F0A0A0A0A",
"z  c #8D8D10101010",
"x  c #919111121112",
"c  c #939312121212",
"v  c #959517181718",
"b  c #959518181818",
"n  c #A2A100000000",
"m  c #A3A300000000",
"M  c #A4A300000000",
"N  c #A7A700000000",
"B  c #A8A700000000",
"V  c #A9A900000000",
"C  c #ABAB00000000",
"Z  c #ACAB00000000",
"A  c #ADAD00000000",
"S  c #AEAD00000000",
"D  c #B1B100000000",
"F  c #B2B100000000",
"G  c #B4B300000000",
"H  c #B5B500000000",
"J  c #B9B900000000",
"K  c #BAB900000000",
"L  c #BCBB00000000",
"P  c #BDBD00000000",
"I  c #BEBD00000000",
"U  c #BFBF00000000",
"Y  c #A09F1C1C1C1C",
"T  c #B2B128282828",
"R  c #C0BF00000000",
"E  c #C3C300000000",
"W  c #C5C500000000",
"Q  c #C7C700000000",
"!  c #C8C700000000",
"~  c #C9C900000000",
"^  c #CAC900000000",
"/  c #CBCB00000000",
"(  c #CAC901020102",
")  c #CCCB00000000",
"_  c #CDCD00000000",
"`  c #D9D90B0C0B0C",
"'  c #D8D71E1E1E1E",
"]  c #E3E300000000",
"[  c #F2F106060606",
"{  c red",
"}  c #C2C122222222",
"|  c #C4C323242324",
" . c #CAC922222222",
".. c #CECD24242424",
"X. c #D4D321222122",
"o. c #D6D523242324",
"O. c #D7D72D2E2D2E",
"+. c #DFDF35363536",
"@. c #D6D538383838",
"#. c #EBEB23242324",
"$. c #FEFF2A2A2A2A",
"%. c #FEFF2B2C2B2C",
"&. c #EEED3E3E3E3E",
"*. c #FEFF31323132",
"=. c #F3F341424142",
"-. c None",
/* pixels */
"-.-.-.-.-.-.^ Q U H -.-.-.-.-.-.",
"-.-.-.-.) ~ J F d u |  .-.-.-.-.",
"-.-.-.) U f a s 0 & @ z =.-.-.-.",
"-.-.) ) f r B Z o.+ .   8 m -.-.",
"-.-.) L y D { *.$.X.:   = g -.-.",
"-.-.W h 9 V ' v 5 +.k   * 7 N -.",
"-.~ H t 4 Y %.i x [ w . & 1 A -.",
"-.E N 1 ; j #.T ( S X O % 1 H -.",
"-.K C - $ b @.3 F _ # * > r I -.",
"-.-.O.p o c ` O * ] h , 6 D W -.",
"-.-...} : o , 2 e < M 7 n ! -.-.",
"-.-.-.&.l * + * , 2 e B ~ -.-.-.",
"-.-.-.-.M m y q t n R ^ / -.-.-.",
"-.-.-.-.-.N C G P W ^ -.-.-.-.-.",
"-.-.-.-.-.-.-.-.-.-.-.-.-.-.-.-.",
"-.-.-.-.-.-.-.-.-.-.-.-.-.-.-.-."
};
