/* XPM */
static char *result[] = {
/* columns rows colors chars-per-pixel */
"64 64 75 1 ",
"  c #569A00000000",
". c #5ADB00080008",
"X c #63EE00300030",
"o c #6BE3003D003D",
"O c #6C6C085E085E",
"+ c #73DD000A000A",
"@ c #7C1E00000000",
"# c #74DC0B3F0B3F",
"$ c #7A7A0F100F10",
"% c #844100150015",
"& c #8C0200000000",
"* c #93E000000000",
"= c #9B6A00000000",
"- c #92910F100F10",
"; c #9F9F0A0A0A0A",
": c #860512131213",
"> c #888713141314",
", c #9C9B17181718",
"< c #93E81BC71BC7",
"1 c #9A991E1E1E1E",
"2 c #A4D6000F000F",
"3 c #ABE5001C001C",
"4 c #A7A7090A090A",
"5 c #B3F6000A000A",
"6 c #BC8E00030003",
"7 c #A1A114141414",
"8 c #ACAC15151515",
"9 c #A1A11A9B1A9B",
"0 c #BDBC19191919",
"q c #A4A422222222",
"w c #ACAC25D125D1",
"e c #AE5829292929",
"r c #BCBB25262526",
"t c #B0AF28282828",
"y c #BCBB2E2E2E2E",
"u c #B7B730303030",
"i c #C52500000000",
"p c #CB6F00000000",
"a c #D4F800000000",
"s c #DB0400000000",
"d c #C2411C1D1C1D",
"f c #E2A200000000",
"g c #E9E800000000",
"h c #F6F600000000",
"j c #FF8E005A005A",
"k c #C4C323242324",
"l c #CDCC22222222",
"z c #C0BF2E2E2E2E",
"x c #CCCB28282828",
"c c #D5D523242324",
"v c #DCDB24242424",
"b c #D47E2A2B2A2B",
"n c #DAFE2D092D09",
"m c #CE2234DF34DF",
"M c #D4D434353435",
"N c #DBF433673367",
"B c #D9583A3B3A3B",
"V c #F3F32F302F30",
"C c #FCDF2B812B81",
"Z c #E5A43BFC3BFC",
"A c #EB6A3BBC3BBC",
"S c #F7F730303030",
"D c #FDC932803280",
"F c #FD2F39863986",
"G c #D8D740404040",
"H c #E0DF44444444",
"J c #ED4141974197",
"K c #EB3F4AF64AF6",
"L c #F5F544C544C5",
"P c #FD5C41E241E2",
"I c #F4F348484848",
"U c #FF994C1B4C1B",
"Y c #FFFF54AD54AD",
"T c #FFFF591A591A",
"R c None",
/* pixels */
"RRRRRRRRRRRRRRRRRRRRRRRRRRRRRRRRRRRRRRRRRRRRRRRRRRRRRRRRRRRRRRRR",
"RRRRRRRRRRRRRRRRRRRRRRRRRRRpppiiii6i66RRRRRRRRRRRRRRRRRRRRRRRRRR",
"RRRRRRRRRRRRRRRRRRRRRRRppppppiiii666655553RRRRRRRRRRRRRRRRRRRRRR",
"RRRRRRRRRRRRRRRRRRRRRapppppppiiii66655553333ARRRRRRRRRRRRRRRRRRR",
"RRRRRRRRRRRRRRRRRRRpppppppppiiii66665553333AYUNRRRRRRRRRRRRRRRRR",
"RRRRRRRRRRRRRRRRRppppppppppiiii65335235333AYUU02RRRRRRRRRRRRRRRR",
"RRRRRRRRRRRRRRRRppppappppi66ii5%@@+oo+%&=ZYUU0222RRRRRRRRRRRRRRR",
"RRRRRRRRRRRRRRRpapppppp3=*&%%=3@@++ooXXX.#mY0222bUFRRRRRRRRRRRRR",
"RRRRRRRRRRRRRRppppppp6=*&&&&%=5@++ooXXX.X..#*22NUUUFRRRRRRRRRRRR",
"RRRRRRRRRRRRRppappai3*&*&&%%%=5@++ooXXX......oMUUUUUnRRRRRRRRRRR",
"RRRRRRRRRRRRpapppp6****&&&%%@@%++oXXX..... .  #JUUUn22RRRRRRRRRR",
"RRRRRRRRRRRpppppp6**&&&&&&=ggp++=ff2XX....     OAUn222RRRRRRRRRR",
"RRRRRRRRRRppppap5=**&&&&%%=jja+o3jj8X.... .     Ok22222RRRRRRRRR",
"RRRRRRRRRRpppppp3*&*&&&&%%=jjaoo3jFt.....        .*22222RRRRRRRR",
"RRRRRRRRRapppppp3&*&*&&%%@=jjaoo2FYw.... .        o22=22RRRRRRRR",
"RRRRRRRRppappppp3*&&&&%&@@=jja++zTYw....          .222222RRRRRRR",
"RRRRRRRRppappppp3&&&&%ijjjjjjjjPYYYCa=..           =22222RRRRRRR",
"RRRRRRRRpppppppp2&&&%%6jjjjjjjPTYYCjjjnO           &22222RRRRRRR",
"RRRRRRRppppppp5=&&&%%%6jjjjjjPTYYCjjjDUAX          @%&2222RRRRRR",
"RRRRRRRpppppp3&&&&%%%@6jjjjjPTYYCjjjFUUUB          @+X2222RRRRRR",
"RRRRRRppppppp*&&&%%%@@6jjhilKTKxiiicUUUUU>         @+ =222RRRRRR",
"RRRRRRapppp5i&&&%%%@@+5jjj-XXG....  1UUUD6         %@ @2323RRRRR",
"RRRRRRppppp3i&&%%%@@++5jjPKOXd...    HUFja         &% o2222RRRRR",
"RRRRRRppppi3i&%%%@@@++5jPTTy.a.   .  MDjja        .&& .2233RRRRR",
"RRRRRRppipi=i=%%@@@+oo5PTTYC+.... . .Sjjjp        .&=..=333RRRRR",
"RRRRRRpppi6=i=%@@++oootTTYCjs....XX>vjjjj=      ...&=..&333RRRRR",
"RRRRRppipi5%2%@@+++oooeTYCjjj7  XHUDjjjjhX    .. ..Xo..&3353RRRR",
"RRRRRipiii3%%@@+++ooXXeYCjjjFIO  #Sjjjjj=       .....XX%3355RRRR",
"RRRRRiiiii=@@@+++oooXXwCjjjFYUm   =jjjhi. . . .......XX&5555RRRR",
"RRRRRpiii62@@+++ooXXX.4jjjFUUUUq%&&gji+&   . ......XXXX*5555RRRR",
"RRRRRiii662@+++oXoXX..2jjFU$By$8jjjji  =   ......XXXXoo=556RRRRR",
"RRRRRRi6663++ooXXXX..X2jFUU <X  fjjjj@ &. .....X.XXXXoo2566RRRRR",
"RRRRRR66666+oooXXXX...2FUUY.<.  +jjjjf. .......XXXXooo+5666RRRRR",
"RRRRRR66555%ooXX.X....qUUUU.,+   3jjjj2......XXXXXooo+@6666RRRRR",
"RRRRRR66555=XXX.......qUUUUX3@   .sjjjj+....XXXXooo++@=6666RRRRR",
"RRRRRR555532oXX.X.. ..9UUUD.2%   .+jjjjsX.XXXXXooo++++36iiiRRRRR",
"RRRRRR55535N<X.X...   9UUDj....   .2jjjj2.XXXoooo++@@%6iiiRRRRRR",
"RRRRRR5553MYG......   ,UDjjX  . .. .ajjjh+XXooo++++@@2iiipRRRRRR",
"RRRRRR353NTYY:...     9DjjjX     ...+hjjjaoooo+++@@%=6iiiiRRRRRR",
"RRRRRR5RNYYYn=....    4jjjj@+X. .@@X.=jjjj=oo+++@%%%6iiiipRRRRRR",
"RRRRRR3RIYYb23@.      X@@++=2+ .X23X.X%pjio+++@@@%%3iiiippRRRRRR",
"RRRRRR3RRUb222N>           =2+..X22oXXooh=+++@@%%&=ipippRpRRRRRR",
"RRRRRRRRRR322NULO         .=2@..X33oXXooh2+@@%%%%=iiippRRpRRRRRR",
"RRRRRR3RRR32NUUUm.        .=2+..X33oXoooh6+@@@%%=6iipppRRpRRRRRR",
"RRRRRRRRRRRNUUUUUr.      . %&+..X==ooo++i=@%%%%=6pipppRRRpRRRRRR",
"RRRRRRRRRRRRPUUUN==.      . ...XXXXoo++++@@%%%=iippppRRRRRRRRRRR",
"RRRRRRRRRRRRRLLN222=o    ......XXXooo++@@@%&&5iiipppRRRRRRRRRRRR",
"RRRRRRRRRRRRRRl222222=o .....XXXXooo+@@@%%%2ipppppppRRRRRRRRRRRR",
"RRRRRRRRRRRRRRR22222222%+....XXXooo++@@@%2iiippppppRRRRRRRRRRRRR",
"RRRRRRRRRRRRRRRR222222222=+oXXXXoo++@%*3iiiipppppppRRRRRRRRRRRRR",
"RRRRRRRRRRRRRRRRR2222222223332&&===356iiiiipppppppRRRRRRRRRRRRRR",
"RRRRRRRRRRRRRRRRRR2222222323335555666iiiiippppppRRRRRRRRRRRRRRRR",
"RRRRRRRRRRRRRRRRRRR32232333335555666iiiipppipppRRRRRRRRRRRRRRRRR",
"RRRRRRRRRRRRRRRRRRRRRR2223333556666iiiiippppRRRRRRRRRRRRRRRRRRRR",
"RRRRRRRRRRRRRRRRRRRRRR23RR35555666iiiiiRppppRRRRRRRRRRRRRRRRRRRR",
"RRRRRRRRRRRRRRRRRRRRRR33RRRRRRRRRRRiiRRRRRRpRRRRRRRRRRRRRRRRRRRR",
"RRRRRRRRRRRRRRRRRRRRRR33RRRRRRRRRRRRiRRRRRppRRRRRRRRRRRRRRRRRRRR",
"RRRRRRRRRRRRRRRRRRRRRR33RRRRRRRRRRRRpRRRRRppRRRRRRRRRRRRRRRRRRRR",
"RRRRRRRRRRRRRRRRRRRRRR33RRRRRRRRRRRRpRRRRRRpRRRRRRRRRRRRRRRRRRRR",
"RRRRRRRRRRRRRRRRRRRRRR53RRRRRRRRRRRRRRRRRRRRRRRRRRRRRRRRRRRRRRRR",
"RRRRRRRRRRRRRRRRRRRRRR35RRRRRRRRRRRRpRRRRRRRRRRRRRRRRRRRRRRRRRRR",
"RRRRRRRRRRRRRRRRRRRRRR33RRRRRRRRRRRRpRRRRRRRRRRRRRRRRRRRRRRRRRRR",
"RRRRRRRRRRRRRRRRRRRRRR55RRRRRRRRRRRRRRRRRRRRRRRRRRRRRRRRRRRRRRRR",
"RRRRRRRRRRRRRRRRRRRRRRRRRRRRRRRRRRRRRRRRRRRRRRRRRRRRRRRRRRRRRRRR"
};
