/* XPM */
static char *result[] = {
/* columns rows colors chars-per-pixel */
"64 64 185 2 ",
"   c #949400000000",
".  c #957A00000000",
"X  c #968400000000",
"o  c #979700000000",
"O  c #98B000000000",
"+  c #999E00000000",
"@  c #9A6600000000",
"#  c #9BAD00000000",
"$  c #9CB800000000",
"%  c #9DBF00000000",
"&  c #9EC200000000",
"*  c #9F6900000000",
"=  c #A0D700000000",
"-  c #A15D00000000",
";  c #A2F600000000",
":  c #A38400000000",
">  c #A49900000000",
",  c #A60600000000",
"<  c #A6B100000000",
"1  c #A80600000000",
"2  c #A8DC00000000",
"3  c #A9A000000000",
"4  c #AAC300000000",
"5  c #AB6E00000000",
"6  c #ACAE00000000",
"7  c #AD9700000000",
"8  c #AE8E00000000",
"9  c #AFEF00000000",
"0  c #B0A400000000",
"q  c #B1C800000000",
"w  c #B27800000000",
"e  c #B39D00000000",
"r  c #B49000000000",
"t  c #B56F00000000",
"y  c #B6A700000000",
"u  c #B7ED00000000",
"i  c #B87400000000",
"p  c #B9E700000000",
"a  c #BC1400000000",
"s  c #BC9800000000",
"d  c #BDE700000000",
"f  c #BEA000000000",
"g  c #BFE100000000",
"h  c #C09800000000",
"j  c #C21100000000",
"k  c #C2A100000000",
"l  c #C34B00000000",
"z  c #C4B500000000",
"x  c #C6EB00000000",
"c  c #C7B100000000",
"v  c #C5F704520452",
"b  c #C91200000000",
"n  c #C9C500000000",
"m  c #CAB400000000",
"M  c #CBB400000000",
"N  c #CCCB00000000",
"B  c #CD9900000000",
"V  c #CE6600000000",
"C  c #D00F00000000",
"Z  c #C4010E2E0E2E",
"A  c #D0CC00000000",
"S  c #D1ED00000000",
"D  c #D25B00000000",
"F  c #D3C600000000",
"G  c #D4A000000000",
"H  c #D7DF00000000",
"J  c #D8E600000000",
"K  c #DA0D00000000",
"L  c #DBC200000000",
"P  c #DD0B00000000",
"I  c #DECD00000000",
"U  c #C85D120A120A",
"Y  c #CA3914481448",
"T  c #CAD717CE17CE",
"R  c #CD9B1B4E1B4E",
"E  c #CEA11C221C22",
"W  c #CFBB1D3B1D3B",
"Q  c #D0971F861F86",
"!  c #DAE51AE41AE4",
"~  c #E34500000000",
"^  c #E62100000000",
"/  c #E6B900000000",
"(  c #E81300000000",
")  c #E9B700000000",
"_  c #ED0B00000000",
"`  c #F02F00000000",
"'  c #F0EE00000000",
"]  c #F1F900000000",
"[  c #F2D100000000",
"{  c #F40400000000",
"}  c #F4BC00000000",
"|  c #F5E900000000",
" . c #F6B700000000",
".. c #F80E00000000",
"X. c #F15704D804D8",
"o. c #F91A00000000",
"O. c #FAB700000000",
"+. c #FD5100000000",
"@. c #FE0700000000",
"#. c #FF4B00000000",
"$. c red",
"%. c #FFFF01040104",
"&. c #FFFF02820282",
"*. c #FFFF029F029F",
"=. c #FCF503D803D8",
"-. c #FFFF081F081F",
";. c #FFFF0A720A72",
":. c #FFFF0AB30AB3",
">. c #FFFF0DB60DB6",
",. c #FFFF0F3C0F3C",
"<. c #FFFF12561256",
"1. c #FFFF14481448",
"2. c #D139206E206E",
"3. c #E6EB23DC23DC",
"4. c #ED632CA82CA8",
"5. c #EEFD2DCA2DCA",
"6. c #EFF335903590",
"7. c #E2D739923992",
"8. c #EC9537D037D0",
"9. c #EF0F39F239F2",
"0. c #F44334B634B6",
"q. c #F5CB35863586",
"w. c #F543363E363E",
"e. c #F63537AE37AE",
"r. c #F1E53C083C08",
"t. c #FAC33F203F20",
"y. c #F02F49824982",
"u. c #EFDC4A244A24",
"i. c #F75946344634",
"p. c #F6B747404740",
"a. c #FBFF40EE40EE",
"s. c #FD1342784278",
"d. c #F2DF4E3A4E3A",
"f. c #F36D4EDA4EDA",
"g. c #F3DB4F564F56",
"h. c #FFFF4C184C18",
"j. c #F48550145014",
"k. c #F53150D650D6",
"l. c #F7A556985698",
"z. c #FFFF50C850C8",
"x. c #F9AD54F254F2",
"c. c #FFFF551C551C",
"v. c #F7D758665866",
"b. c #F86F59245924",
"n. c #F93B58025802",
"m. c #F93659FF59FF",
"M. c #FFFF58745874",
"N. c #FFFF59475947",
"B. c #FD675D9A5D9A",
"V. c #FC995E885E88",
"C. c #FDA75E185E18",
"Z. c #FFFF5DF25DF2",
"A. c #FFFF5F0A5F0A",
"S. c #FFC061666166",
"D. c #FFFE63986398",
"F. c #FFFF65326532",
"G. c #FFFF66386638",
"H. c #FFFF67146714",
"J. c #FFFF69596959",
"K. c #FFFF6A656A65",
"L. c #FFFF6B756B75",
"P. c #FFFF6DAD6DAD",
"I. c #FFFF6E816E81",
"U. c #FFFF6F126F12",
"Y. c #FFFF71667166",
"T. c #FFFF71FE71FE",
"R. c #FFFF73547354",
"E. c #FFFF743E743E",
"W. c #FFFF75937593",
"Q. c #FFFF76E476E4",
"!. c #FFFF775A775A",
"~. c #FFFF79007900",
"^. c #FFFF7A7A7A7A",
"/. c #FFFF7B187B18",
"(. c #FFFF7C927C92",
"). c #FFFF7D477D47",
"_. c #FFFF7F427F42",
"`. c #FFFF80938093",
"'. c #FFFF82D782D7",
"]. c #FFFF841D841D",
"[. c #FFFF86238623",
"{. c #FFFF88498849",
"}. c #FFFF89E389E3",
"|. c #FFFF8ACF8ACF",
" X c None",
/* pixels */
" X X X X X X X X X X X X X X X X X X X X X X X X X X X X X X XN N  X X X X X X X X X X X X X X X X X X X X X X X X X X X X X X X",
" X X X X X X X X X X X X X X X X X X X X X X X XN N N N N N N N N N N N N N N N  X X X X X X X X X X X X X X X X X X X X X X X X",
" X X X X X X X X X X X X X X X X X X X X XN N N N N N N N N N N N N N N N N N N N N N  X X X X X X X X X X X X X X X X X X X X X",
" X X X X X X X X X X X X X X X X X XN N N N N N N N N N N N N N N N N N N N N N N N N N A  X X X X X X X X X X X X X X X X X X X",
" X X X X X X X X X X X X X X X X XN N N N N N N N N N N N N N N N N N N N N N N N N N A F.|.'. X X X X X X X X X X X X X X X X X",
" X X X X X X X X X X X X X X XN N N N N N N N N N m g t 7 < ; = - : 1 8 y j M N N N A G.|.|.|.J.S  X X X X X X X X X X X X X X X",
" X X X X X X X X X X X X XN N N N N N N N N c r ; X                         o , i V H.|.|.|.K.F N N  X X X X X X X X X X X X X X",
" X X X X X X X X X X X XN N N N N N N N g < .                                     @ E T.|.K.F N N N e.). X X X X X X X X X X X X",
" X X X X X X X X X X XN N N N N N N k :                                               O Y B N N N w.|.|.(. X X X X X X X X X X X",
" X X X X X X X X X XN N N N N N m 7 .                                                     o e M 0.|.|.|.|.`. X X X X X X X X X X",
" X X X X X X X X XN N N N N N k %                                                             6 ~.|.|.|.|.|.M. X X X X X X X X X",
" X X X X X X X XN N N N N N p X                                                                 > D.|.|.|.A.A N  X X X X X X X X",
" X X X X X X XN N N N N N r .                     n I K .     X / ( D                             $ B.|.Z.A N N N  X X X X X X X",
" X X X X X XN N N N N N r                          .$.$.X     + $.$.@.                              $ 8.C N N N N  X X X X X X X",
" X X X X X XN N N N N p .                         | $.$.X     + $.1.i.                                o k N N N N N  X X X X X X",
" X X X X XN N N N N j X                           } $.$.X     + 1.^.l.                                  # b N N N N N  X X X X X",
" X X X X XN N N N m $                             [ $.$.X     + !.|.l.                                    , N N N N N  X X X X X",
" X X X XN N N N N 6                               ' $.$.o     + ].|.n.                                      u N N N N N  X X X X",
" X X XN N N N N j .                     ~ $.$.$.$.$.$.$.$.>.J.W.}.|.Y.%.^ w                                 + b N N N N  X X X X",
" X X XN N N N N :                       ' $.$.$.$.$.$.$.1.^.|.|.|.W.,.$.$.&.5.*                               8 N N N N N  X X X",
" X X XN N N N g                         ' $.$.$.$.$.$.1.^.|.|.|.W.,.$.$.*.M.|.P.>                             o c N N N N  X X X",
" X XN N N N N <                         ' $.$.$.$.$.1.^.|.|.|.W.,.$.$.*.M.|.|.|.D.O                             q N N N N N  X X",
" X XN N N N x .                         ] $.$.O.o.o.p.v.b.m.x.=.#.$.$.h.|.|.|.|.|.W                             # M N N N N  X X",
" X XN N N N r                           ] $.$.G                       + 7.|.|.|.|.M..                             g N N N N  X X",
" XN N N N N ;                           ] $.$.<.3                       . S.|.|.U.:.2                             7 N N N N  X X",
" XN N N N m X                           [ $.1.^.V.X                       W |.I.:.$.s                             & N N N N N  X",
" XN N N N g                             [ 1./.|.|.2.                      Z I.;.$.$.g                             . n N N N N  X",
" XN N N N t                             X./.|.|.|.P.2                     3.;.$.$.$.e                               h N N N N  X",
" XN N N N 6                             y.|.|.|.W.,.+.X                 g -.$.$.$.$.#                               u N N N N  X",
" XN N N N <                             u.|.|.W.,.$.$.A         9 T Q 4.-.$.$.$.$._                                 q N N N N  X",
" XN N N N ;                             u.|.W.,.$.$.*.z.1       > ).I.:.$.$.$.$.$.2                                 7 N N N N  X",
"N N N N N =                             u.W.,.$.$.&.N.|.m.X       v ;.$.$.$.$.$.j                                   5 N N N N  X",
"N N N N N -                             6.,.$.$.&.N.|.|.|.R       . | $.$.$.$.a                                     5 N N N N  X",
" XN N N N :                             { $.$.&.N.|.}.}.}._.y 5 4 5 d $.$.L &                                       8 N N N N  X",
" XN N N N 1                             { $.*.N.{.1 * & & & ! ;.$.$.$.$.=                                           w N N N N  X",
" XN N N N 8                             } *.N.|.{.%         O $.$.$.$.$.)                                           i N N N N  X",
" XN N N N y                             { N.|.|.{.%           q $.$.$.$.$.s                                         j N N N N  X",
" XN N N N j                             r.|.|.|.{.%             P $.$.$.$.$.%                                     X m N N N N  X",
" XN N N N M o                           d.|.|.|.{.%             O $.$.$.$.$._                                     - N N N N N  X",
" XN N N N N ,                           d.|.|.|.{.%               q $.$.$.$.$.h                                   0 N N N N  X X",
" X XN N N N i                           f.|.|.|.P.+                 P $.$.$.$.$.=                                 k N N N N  X X",
" X XN N N N F #                         g.|.|.I.;.O                 O $.$.$.$.$.]                               * N N N N N  X X",
" X XN N N H R.W                         j.|.I.;.$.O                   9 $.$.$.$.$.x                             y N N N N  X X X",
" X X XN J E.|.T.O                       k.I.;.$.$.+                     J $.$.$.$.$.:                         + m N N N N  X X X",
" X X XL W.|.|.|.U                       q.:.$.$.$.@                     o $.$.$.$.$. ..                       r N N N N N  X X X",
" X X X X|.|.|.L.V o                     L .. .{ ` 0 y r         r y 6     5 } ....| { 8                     $ M N N N N  X X X X",
" X X X X[.|.L.G N r                               a N b       . b N a                                     . f N N N N N  X X X X",
" X X X X XL.G N N N 8                             a N b       . b N a                                     7 N N N N N  X X X X X",
" X X X X XF N N B t.~.>                           a N b       . b N a                                   = M N N N N N  X X X X X",
" X X X X X XN B a.|.|.D.$                         a N b       . b N a                                 # c N N N N N  X X X X X X",
" X X X X X X Xs.|.|.|.|.C.%                       a N b       . b N a                               @ z N N N N N  X X X X X X X",
" X X X X X X X/.|.|.|.|.|.9.o                     ; 3 1         1 3 :                             # z N N N N N  X X X X X X X X",
" X X X X X X X XW.|.|.|.A.A k #                                                                 - c N N N N N N  X X X X X X X X",
" X X X X X X X X XQ.|.S.A N N b ,                                                           . 7 M N N N N N N  X X X X X X X X X",
" X X X X X X X X X Xc.S N N N N N i +                                                     % f N N N N N N N  X X X X X X X X X X",
" X X X X X X X X X X XN N N N N N N b 8 o                                             @ r M N N N N N N N  X X X X X X X X X X X",
" X X X X X X X X X X X XN N N N N N N N b q #                                     * y m N N N N N N N  X X X X X X X X X X X X X",
" X X X X X X X X X X X X X XN N N N N N N N M g 8 & .                     X - q l N N N N N N N N N  X X X X X X X X X X X X X X",
" X X X X X X X X X X X X X X XN N N N N N N N N N N n h i q 8 6 6 8 e p k m N N N N N N N N N N N  X X X X X X X X X X X X X X X",
" X X X X X X X X X X X X X X X X XN N N N N N N N N N N N N N N N N N N N N N N N N N N N N N  X X X X X X X X X X X X X X X X X",
" X X X X X X X X X X X X X X X X X X XN N N N N N N N N N N N N N N N N N N N N N N N N N  X X X X X X X X X X X X X X X X X X X",
" X X X X X X X X X X X X X X X X X X X X XN N N N N N N N N N N N N N N N N N N N N  X X X X X X X X X X X X X X X X X X X X X X",
" X X X X X X X X X X X X X X X X X X X X X X X X XN N N N N N N N N N N N N N  X X X X X X X X X X X X X X X X X X X X X X X X X",
" X X X X X X X X X X X X X X X X X X X X X X X X X X X X X X X X X X X X X X X X X X X X X X X X X X X X X X X X X X X X X X X X"
};
