/* XPM */
static char *result[] = {
/* columns rows colors chars-per-pixel */
"32 32 211 2 ",
"   c #565600000000",
".  c #575800000000",
"X  c #585800000000",
"o  c #595A00000000",
"O  c #5A5A00000000",
"+  c #5B5C00000000",
"@  c #5C5C00000000",
"#  c #5D5E00000000",
"$  c #5D5E01020102",
"%  c #5E5E00000000",
"&  c #5F6000000000",
"*  c #5C5C02020202",
"=  c #606000000000",
"-  c #616200000000",
";  c #626200000000",
":  c #636400000000",
">  c #616202020202",
",  c #646400000000",
"<  c #656600000000",
"1  c #666600000000",
"2  c #676800000000",
"3  c #676805060506",
"4  c #686800000000",
"5  c #696A00000000",
"6  c #6A6A00000000",
"7  c #6B6C00000000",
"8  c #6C6C00000000",
"9  c #6D6E00000000",
"0  c #6E6E00000000",
"q  c #6F7000000000",
"w  c #6F7002020202",
"e  c #707000000000",
"r  c #717200000000",
"t  c #727200000000",
"y  c #737400000000",
"u  c #747400000000",
"i  c #757600000000",
"p  c #767600000000",
"a  c #777800000000",
"s  c #787800000000",
"d  c #797A00000000",
"f  c #7A7A00000000",
"g  c #7B7C00000000",
"h  c #7D7E00000000",
"j  c #7E7E00000000",
"k  c #7F8000000000",
"l  c #7474090A090A",
"z  c #78780A0A0A0A",
"x  c #7B7C0F100F10",
"c  c #7E7E0C0C0C0C",
"v  c #7C7C10101010",
"b  c #807F00000000",
"n  c #818100000000",
"m  c #828100000000",
"M  c #838300000000",
"N  c #848300000000",
"B  c #858500000000",
"V  c #868500000000",
"C  c #878700000000",
"Z  c #888700000000",
"A  c #898900000000",
"S  c #8A8900000000",
"D  c #8B8B00000000",
"F  c #8C8B00000000",
"G  c #8D8D00000000",
"H  c #8E8D00000000",
"J  c #8F8F00000000",
"K  c #81810D0E0D0E",
"L  c #919100000000",
"P  c #929100000000",
"I  c #939300000000",
"U  c #959500000000",
"Y  c #969500000000",
"T  c #979700000000",
"R  c #969507080708",
"E  c #989700000000",
"W  c #999900000000",
"Q  c #9A9900000000",
"!  c #9C9B00000000",
"~  c #9D9D00000000",
"^  c #9E9D00000000",
"/  c #9F9F00000000",
"(  c #9291090A090A",
")  c #828113141314",
"_  c #8F8F12121212",
"`  c #898916161616",
"'  c #8C8B18181818",
"]  c #949311121112",
"[  c #99991D1E1D1E",
"{  c #9C9B1D1E1D1E",
"}  c #A09F00000000",
"|  c #A1A100000000",
" . c #A2A100000000",
".. c #A3A300000000",
"X. c #A4A300000000",
"o. c #A5A500000000",
"O. c #A6A500000000",
"+. c #A7A700000000",
"@. c #A8A700000000",
"#. c #A9A900000000",
"$. c #AAA900000000",
"%. c #ABAB00000000",
"&. c #ACAB00000000",
"*. c #ADAD00000000",
"=. c #ACAB01020102",
"-. c #AEAD00000000",
";. c #AFAF00000000",
":. c #A2A10C0C0C0C",
">. c #B0AF00000000",
",. c #B1B100000000",
"<. c #B2B100000000",
"1. c #B3B300000000",
"2. c #B4B300000000",
"3. c #B5B500000000",
"4. c #B6B500000000",
"5. c #B7B700000000",
"6. c #B8B700000000",
"7. c #B9B900000000",
"8. c #BBBB00000000",
"9. c #BCBB00000000",
"0. c #BDBD00000000",
"q. c #BEBD00000000",
"w. c #BCBB16161616",
"e. c #A3A323242324",
"r. c #AFAF21222122",
"t. c #ADAD26262626",
"y. c #BDBD24242424",
"u. c #B1B1292A292A",
"i. c #B2B12A2A2A2A",
"p. c #C0BF00000000",
"a. c #C1C100000000",
"s. c #C2C100000000",
"d. c #C3C300000000",
"f. c #C4C300000000",
"g. c #C5C500000000",
"h. c #C6C500000000",
"j. c #C7C700000000",
"k. c #C8C700000000",
"l. c #C9C900000000",
"z. c #CAC900000000",
"x. c #CBCB00000000",
"c. c #CCCB00000000",
"v. c #CFCF00000000",
"b. c #D2D100000000",
"n. c #D3D300000000",
"m. c #D2D101020102",
"M. c #D4D300000000",
"N. c #D9D900000000",
"B. c #D9D901020102",
"V. c #DBDB00000000",
"C. c #DDDD00000000",
"Z. c #DEDD00000000",
"A. c #CBCB16161616",
"S. c #CFCF16161616",
"D. c #D3D316161616",
"F. c #D6D51F201F20",
"G. c #E9E900000000",
"H. c #EAE900000000",
"J. c #F0EF00000000",
"K. c #F4F300000000",
"L. c #F5F500000000",
"P. c #F7F700000000",
"I. c #FDFD01020102",
"U. c red",
"Y. c #FFFF01020102",
"T. c #C8C721222122",
"R. c #CFCF25262526",
"E. c #CECD28282828",
"W. c #D1D126262626",
"Q. c #D1D12A2A2A2A",
"!. c #D4D32A2A2A2A",
"~. c #D5D52A2A2A2A",
"^. c #D5D52C2C2C2C",
"/. c #D7D72C2C2C2C",
"(. c #D8D72F302F30",
"). c #C3C336363636",
"_. c #C9C9393A393A",
"`. c #D0CF33343334",
"'. c #D7D732323232",
"]. c #D1D136363636",
"[. c #D8D730303030",
"{. c #D9D930303030",
"}. c #D6D53D3E3D3E",
"|. c #D6D53F403F40",
" X c #E4E326262626",
".X c #FDFD2A2A2A2A",
"XX c #FDFD2B2C2B2C",
"oX c #FEFF2B2C2B2C",
"OX c #FCFB2C2C2C2C",
"+X c #FDFD2D2E2D2E",
"@X c #FEFF2C2C2C2C",
"#X c #FEFF2D2E2D2E",
"$X c #E0DF33343334",
"%X c #FEFF30303030",
"&X c #FEFF36363636",
"*X c #FEFF37383738",
"=X c #FEFF38383838",
"-X c #E6E541424142",
";X c #F2F1494A494A",
":X c #FAF948484848",
">X c #FAF9494A494A",
",X c #FEFF48484848",
"<X c #FCFB4A4A4A4A",
"1X c #FFFF4B4C4B4C",
"2X c #FBFB4E4E4E4E",
"3X c #FDFD4D4E4D4E",
"4X c #FFFF4C4C4C4C",
"5X c #FFFF54545454",
"6X c #FFFF55565556",
"7X c #FFFF57585758",
"8X c None",
/* pixels */
"8X8X8X8X8X8X8X8X8X8X8X8X8X8X8X8Xd.8X8X8X8X8X8X8X8X8X8X8X8X8X8X8X",
"8X8X8X8X8X8X8X8X8X8X8Xc.x.z.k.g.a.9.5.<.-.=.8X8X8X8X8X8X8X8X8X8X",
"8X8X8X8X8X8X8X8X8Xc.c.x.z.k.h.a.4.3.*.;.=.$X3Xw.8X8X8X8X8X8X8X8X",
"8X8X8X8X8X8X8X8Xc.c.x.d.;...@.W s e 8 i ] ;XT.X.W.8X8X8X8X8X8X8X",
"8X8X8X8X8X8X8Xc.c.x.>.P G Z J T t 7 , & + > b ^.1X,X8X8X8X8X8X8X",
"8X8X8X8X8X8Xc.c.j.^ L G A ..%.s Y U - @ O X . ` :X~.X.8X8X8X8X8X",
"8X8X8X8X8Xc.c.c.| L H S N v.G.q M.F.# O X .     z } ..X.8X8X8X8X",
"8X8X8X8Xc.c.c.x.^ J D C k x.H.0 {.}.+ o X         N ....8X8X8X8X",
"8X8X8X8Xc.c.x.z.Q D V Z.U.U.Y.&X5X.XV.c .         u  .X.o.8X8X8X",
"8X8X8Xc.c.x.s.Q D C n C.U.Y.*X6XXXU.+X>Xv         6 f X.o.8X8X8X",
"8X8X8Xc.x.g.&.D C n g V.I.:._.{ H ( -X1XR.        7 4 E O.8X8X8X",
"8X8X8Xx.z.7.#.C n g u B.=X).R O X . [ #XH.        r q M +.#.8X8X",
"8X8X8Xz.k.-.-.n f u 9 '.7XXXm o $ 3 A.U.N.    . X t d s $.&.8X8X",
"8X8X8Xk.g.Q D f y 9 2 |.oXY. X* ) OXU.U.I   . X o % ; u *.>.8X8X",
"8X8X8Xg.s.J d y 8 2 ; D.Y.%X4Xu.w g.J.-.X X X O @ % ; d ,.3.8X8X",
"8X8X8Xa.0.H t 8 1 - % m.%Xi.e.l P.U.o.i X o O @ & : 4 B 4.7.8X8X",
"8X8X8X0.7.Q 7 < - # + Q.4Xt.K   ~ U.P.9 o + # - < 5 q T 8.q.8X8X",
"8X8X8X6.2.+.< = # O o ].4Xr.I   X n.U.n.@ & ; 1 7 r p ;.p.8X8X8X",
"8X8X8X1.;.[.' @ O X X `.@X;.O . X 8 L.U.~ , 4 9 y s Z a.f.8X8X8X",
"8X8X8X>.(.5Xy.O X .   S.U.5.- X - : W U.K.i q i g n 2.g.j.8X8X8X",
"8X8X8X&.2X!.O._ .     : 2 b F o B Z - A M.t a h m X.h.k.l.8X8X8X",
"8X8X8X8X8X+./.<Xx       . f G + C D 1 8 b.s j N ! h.l.z.x.8X8X8X",
"8X8X8X8X8X8X1X1XE.5     X , 8 # e i 9 y I b B / h.l.z.8X8X8X8X8X",
"8X8X8X8X8X8X8XW...} b # X O # - 1 9 y f b G 1.k.z.z.8X8X8X8X8X8X",
"8X8X8X8X8X8X8X8X....X.~ M < - < 8 y g H &.g.k.z.x.x.8X8X8X8X8X8X",
"8X8X8X8X8X8X8X8X8XX.X.o.+.#.$./ +.-.0.d.h.l.z.x.x.8X8X8X8X8X8X8X",
"8X8X8X8X8X8X8X8X8X8XO.O.#.&.>.2.7.q.s.h.k.z.x.8X8X8X8X8X8X8X8X8X",
"8X8X8X8X8X8X8X8X8X8X8X#.8X8X8X7.0.s.g.8X8Xx.8X8X8X8X8X8X8X8X8X8X",
"8X8X8X8X8X8X8X8X8X8X8X%.8X8X8X8X8X8Xj.8X8Xc.8X8X8X8X8X8X8X8X8X8X",
"8X8X8X8X8X8X8X8X8X8X8X*.8X8X8X8X8X8X8X8X8X8X8X8X8X8X8X8X8X8X8X8X",
"8X8X8X8X8X8X8X8X8X8X8X;.8X8X8X8X8X8Xz.8X8X8X8X8X8X8X8X8X8X8X8X8X",
"8X8X8X8X8X8X8X8X8X8X8X<.8X8X8X8X8X8X8X8X8X8X8X8X8X8X8X8X8X8X8X8X"
};
