/* XPM */
static char *result[] = {
/* columns rows colors chars-per-pixel */
"128 128 58 1 ",
"  c #949A00000000",
". c #9C8000000000",
"X c #A4A700000000",
"o c #ABF200000000",
"O c #B3F400000000",
"+ c #BC3300000000",
"@ c #C48F002D002D",
"# c #CCBF00000000",
"$ c #C57C09DE09DE",
"% c #D32100000000",
"& c #DD4100A800A8",
"* c #DDF90A000A00",
"= c #CCC1135C135C",
"- c #D10513FA13FA",
"; c #D91D16041604",
": c #D2C21D121D12",
"> c #E457000B000B",
", c #ECD800000000",
"< c #E7890E300E30",
"1 c #F41F00D400D4",
"2 c #FFF300140014",
"3 c #FFFF0A870A87",
"4 c #E75810F510F5",
"5 c #EAE714E414E4",
"6 c #FFFF15561556",
"7 c #FFFF1F321F32",
"8 c #D53323AC23AC",
"9 c #DAA725E425E4",
"0 c #D761286C286C",
"q c #DBAA2C732C73",
"w c #E32522EC22EC",
"e c #FFFF24082408",
"r c #F5212CDA2CDA",
"t c #FFFF2A172A17",
"y c #E25F34463446",
"u c #EB87302E302E",
"i c #E7043D553D55",
"p c #E9473DE83DE8",
"a c #F7C730BE30BE",
"s c #FAC135603560",
"d c #F5DB3D493D49",
"f c #FFC93BAC3BAC",
"g c #EC52437B437B",
"h c #EE9D48AA48AA",
"j c #F83B40F240F2",
"k c #FC87444F444F",
"l c #F1CB4D484D48",
"z c #FFFF4BEE4BEE",
"x c #F71E54085408",
"c c #FFFF52E452E4",
"v c #FA765A7A5A7A",
"b c #FFEB65C665C6",
"n c #FFFF69266926",
"m c #FFFF75357535",
"M c #FFFF7CE37CE3",
"N c #FFFF84AC84AC",
"B c #FFFF8AB78AB7",
"V c None",
/* pixels */
"VVVVVVVVVVVVVVVVVVVVVVVVVVVVVVVVVVVVVVVVVVVVVVVVVVVVVVVVVVVVVVVVVVVVVVVVVVVVVVVVVVVVVVVVVVVVVVVVVVVVVVVVVVVVVVVVVVVVVVVVVVVVVVVV",
"VVVVVVVVVVVVVVVVVVVVVVVVVVVVVVVVVVVVVVVVVVVVVVVVVVVVVVV################VVVVVVVVVVVVVVVVVVVVVVVVVVVVVVVVVVVVVVVVVVVVVVVVVVVVVVVVV",
"VVVVVVVVVVVVVVVVVVVVVVVVVVVVVVVVVVVVVVVVVVVVVVVVVV###########################VVVVVVVVVVVVVVVVVVVVVVVVVVVVVVVVVVVVVVVVVVVVVVVVVVV",
"VVVVVVVVVVVVVVVVVVVVVVVVVVVVVVVVVVVVVVVVVVVVVV#################################%#VVVVVVVVVVVVVVVVVVVVVVVVVVVVVVVVVVVVVVVVVVVVVVV",
"VVVVVVVVVVVVVVVVVVVVVVVVVVVVVVVVVVVVVVVVVVV##########################################VVVVVVVVVVVVVVVVVVVVVVVVVVVVVVVVVVVVVVVVVVV",
"VVVVVVVVVVVVVVVVVVVVVVVVVVVVVVVVVVVVVVVV###############################################VVVVVVVVVVVVVVVVVVVVVVVVVVVVVVVVVVVVVVVVV",
"VVVVVVVVVVVVVVVVVVVVVVVVVVVVVVVVVVVVVV######%#############################################VVVVVVVVVVVVVVVVVVVVVVVVVVVVVVVVVVVVVV",
"VVVVVVVVVVVVVVVVVVVVVVVVVVVVVVVVVVVV#####################################################*MmVVVVVVVVVVVVVVVVVVVVVVVVVVVVVVVVVVVV",
"VVVVVVVVVVVVVVVVVVVVVVVVVVVVVVVVVV######################################################*NBBNbVVVVVVVVVVVVVVVVVVVVVVVVVVVVVVVVVV",
"VVVVVVVVVVVVVVVVVVVVVVVVVVVVVVVV#######################################################&MBBBBBMVVVVVVVVVVVVVVVVVVVVVVVVVVVVVVVVV",
"VVVVVVVVVVVVVVVVVVVVVVVVVVVVVVV#########################@@++OOooooOO++@@##############*NBBBBBBBN&VVVVVVVVVVVVVVVVVVVVVVVVVVVVVVV",
"VVVVVVVVVVVVVVVVVVVVVVVVVVVVV######################@OoX.               ..XO+#########*NBBBBBBBN4###VVVVVVVVVVVVVVVVVVVVVVVVVVVVV",
"VVVVVVVVVVVVVVVVVVVVVVVVVVVV###################@+o.                          Xo+####*NBBBBBBBN5#####VVVVVVVVVVVVVVVVVVVVVVVVVVVV",
"VVVVVVVVVVVVVVVVVVVVVVVVVV##################@+X.                                .o@*NBBBBBBBN4#######VVVVVVVVVVVVVVVVVVVVVVVVVVV",
"VVVVVVVVVVVVVVVVVVVVVVVVV#################@o.                                      opNBBBBBN4########kmVVVVVVVVVVVVVVVVVVVVVVVVV",
"VVVVVVVVVVVVVVVVVVVVVVVV################+o                                           XyMBBB5########jBBmVVVVVVVVVVVVVVVVVVVVVVVV",
"VVVVVVVVVVVVVVVVVVVVVVV###############@X                                               XyM4########jBBBBMVVVVVVVVVVVVVVVVVVVVVVV",
"VVVVVVVVVVVVVVVVVVVVV###############@o                                                   .O#######dBBBBBBMVVVVVVVVVVVVVVVVVVVVVV",
"VVVVVVVVVVVVVVVVVVVV###############O                                                       X@####dBBBBBBBBNVVVVVVVVVVVVVVVVVVVVV",
"VVVVVVVVVVVVVVVVVVV##############@.                                                          o##dBBBBBBBBBBNVVVVVVVVVVVVVVVVVVVV",
"VVVVVVVVVVVVVVVVVV##############O                                                             .9BBBBBBBBBBBBNVVVVVVVVVVVVVVVVVVV",
"VVVVVVVVVVVVVVVVV##############o                                                               .gBBBBBBBBBBBM&VVVVVVVVVVVVVVVVVV",
"VVVVVVVVVVVVVVVVV############@.                                                                  8NBBBBBBBBM&##VVVVVVVVVVVVVVVVV",
"VVVVVVVVVVVVVVVV############+                                                                     +MBBBBBBM&####VVVVVVVVVVVVVVVV",
"VVVVVVVVVVVVVVV############+                      ..X...        OOOOo.                             OMBBBBM&######VVVVVVVVVVVVVVV",
"VVVVVVVVVVVVVV############O                       #22222       .22222&                              OMBBM%########VVVVVVVVVVVVVV",
"VVVVVVVVVVVVV############+                        #22222.      .22222&                               OMM&#########VVVVVVVVVVVVVV",
"VVVVVVVVVVVVV###########+                         #22222       .22222&                                O%###########VVVVVVVVVVVVV",
"VVVVVVVVVVVV###########+                          #22222       .2222z0                                 X############VVVVVVVVVVVV",
"VVVVVVVVVVV###########@.                          #22222.      .222zB8                                  X###########VVVVVVVVVVVV",
"VVVVVVVVVVV##########@.                           #22222       X22zBB8                                   O###########VVVVVVVVVVV",
"VVVVVVVVVV###########o                            #22222.      .2zBBB8                                    +###########VVVVVVVVVV",
"VVVVVVVVV###########O                             @22222       XzBBBB8                                    .@##########VVVVVVVVVV",
"VVVVVVVVV##########@                              #22222.      .MBBBB0                                     X###########VVVVVVVVV",
"VVVVVVVV###########X                              @22222.      .MBBBB8                                      O##########VVVVVVVVV",
"VVVVVVVV##########O                               @22222.      .MBBBB9                                       @##########VVVVVVVV",
"VVVVVVV##########@                      O1211222222222222212svvbNBBBBm6>@.                                   X##########VVVVVVVV",
"VVVVVVV##########o                      @222222222222222222zBBBBBBBBBf2222,O                                  +##########VVVVVVV",
"VVVVVV##########+                       @22222222222222222cBBBBBBBBBf2222222,X                                X##########VVVVVVV",
"VVVVVV##########.                       @2222222222222222zBBBBBBBBNf22222223bM+                                O##########VVVVVV",
"VVVVV##########+                        @222222222222222zBBBBBBBBBf22222223bBBN8                               .##########VVVVVV",
"VVVVV##########X                        @22222222222222zBBBBBBBBNf22222223bBBBBB:                               +##########VVVVV",
"VVVVV#########@                         @2222222222222zBBBBBBBBBf22222223bBBBBBBB$                              X##########VVVVV",
"VVVV#######%##o                         @222222222222zBBBBBBBBNf22222223bBBBBBBBBmX                              @#########VVVVV",
"VVVV##########.                         @22222222222zBBBBBBBBBf22222223bBBBBBBBBBBp                              o##########VVVV",
"VVVV#########+                          @22222&%%#%%:80000000;&&&&>>>,fNBBBBBBBBBBNo                              ##########VVVV",
"VVV##########X                          @22222>                        XlBBBBBBBBBBq                              +###%#####VVVV",
"VVV##########                           @222222+                         gBBBBBBBBNe                              X#########VVVV",
"VVV#########+                           @2222222.                        .bBBBBBBNt2o                             .##########VVV",
"VVV#########X                           @222222zy                         $BBBBBNt22#                              +#########VVV",
"VV##########.                           @22222zBBO                        .MBBBNt222&                              O#########VVV",
"VV#########@                            @2222cBBBn.                        vBBNt2222,                              X#########VVV",
"VV#########O                            #222zBBBBBy                        hBNe22222,                               ##########VV",
"VV#########o                            @22zBBBBBBBO                       xNt222222>                               +#########VV",
"VV#########X                            @2zBBBBBBBBn.                     .Mt2222222&                               +#########VV",
"VV#########.                            @zBBBBBBBBBf&                     -t22222222@                               o#########VV",
"V##########                             $BBBBBBBBBf22O                   o7222222222o                               X#########VV",
"V#########@                             $BBBBBBBBf2222.                 o62222222222.                               X#########VV",
"V#########+                             $BBBBBBBf22222&               o9e2222222222&                                .#########VV",
"V#########O                             $BBBBBBf2222222O        XxvbnMMt22222222222X                                 @########VV",
"V#########O                             $BBBBNf22222223k.        8BBBNe22222222222&                                  ##########V",
"V#########O                             $BBBBf22222223bBq         xBNt222222222222.                                  @#########V",
"V#########o                             $BBBf22222223nBBNO        Xmt222222222221o                                   @#########V",
"V#########o                             $BNf22222223bBBBBb.        #222222222222O                                    @#########V",
"V#########o                             $Bf22222223bBBBBBBq         12222222222o                                     @#########V",
"V#########o                             @f22222223bBBBBBBBNo        X22222222,X                                      @#########V",
"V#########O                             #22222223bBBBBBBBBBv.        %222222+                                        @#########V",
"V#########O                             #2222223nBBBBBBBBBBBi=+@@+@@@#2221O                                         .@########VV",
"V#########+                             @222223nBN+oooXooXoX=Nt222222222.                                            @########VV",
"V#########+                             #22223nBBNX          12222222222+                                           .@########VV",
"V#########@                             #2223nBBBNX          X22222222222.                                          X#########VV",
"V##########                             #223nBBBBNX           #2222222222>                                          X#########VV",
"VV#########.                            @23nBBBBBBX            12222222222O                                         O#########VV",
"VV#########X                            #3nBBBBBBNX            X22222222222.                                        +#########VV",
"VV#########O                            @bBBBBBBBNX             #2222222222>                                        @#########VV",
"VV#########+                            =BBBBBBBBNo              12222222222+                                      .#########VVV",
"VV#########@                            =BBBBBBBBNX              X22222222222.                                     X#########VVV",
"VVV#########.                           =BBBBBBBBNo               #2222222222,                                     O#########VVV",
"VVV#########o                           =BBBBBBBBBX                12222222222+                                    @#########VVV",
"VVV#########@                           =BBBBBBBBNo                X22222222222.                                  .##########VVV",
"VVV##########.                          =BBBBBBBBMX                 #2222222222,                                  O#########VVVV",
"VVVV#########o                          =BBBBBBBNt.                  12222222222@                                 @#########VVVV",
"VVVV#########@                          =BBBBBBBt2.                  X22222222222X                               .##########VVVV",
"VVVV#########rO                         =BBBBBNt22.                   @22222222221                               O#########VVVVV",
"VVVV########rBg                         =BBBBNt122.                    12222222222#                             .@#########VVVVV",
"VVVVV######aBBNX                        =BBBNt2222.                    X22222222222o                            o##########VVVVV",
"VVVVV#####aBBBBy                        -BBNt22222X                     @22222222221                            @#########VVVVVV",
"VVVVVV###sBBBBBMX                       :BNt222222.                      ,2222222222%                          o##########VVVVVV",
"VVVVVV##sBBBBBBBq                       -Nt2222222.                      X22222222222o                         @##########VVVVVV",
"VVVVVV%sBBBBBBBBM.                      -t22222222X                       +22222222221                        o##########VVVVVVV",
"VVVVVVVNBBBBBBBN5O                      #222222222X..X..        X.X.X      >2222222222%                       @##########VVVVVVV",
"VVVVVVVmBBBBBBN5##X                     O%%#####@@o####@        @####o     .##%%%#####+                      O##########VVVVVVVV",
"VVVVVVVVNBBBBN5###+                               o####@        @####o                                      .###########VVVVVVVV",
"VVVVVVVVmBBBB5#####o                              o#####       .@####o                                      @##%#######VVVVVVVVV",
"VVVVVVVVVNBB5#######.                             o####@        @####o                                     O###########VVVVVVVVV",
"VVVVVVVVVVB5########u.                            o####@        @####o                                    X###########VVVVVVVVVV",
"VVVVVVVVVV<########zBg                            o####@        @####o                                   .@##########VVVVVVVVVVV",
"VVVVVVVVVVV#######cBBB8                           o####@        @####o                                   +###########VVVVVVVVVVV",
"VVVVVVVVVVV######cBBBBB+                          X####@        @####o                                  +###########VVVVVVVVVVVV",
"VVVVVVVVVVVV###%cBBBBBBMO                         o####@       .@####o                                 o###########VVVVVVVVVVVVV",
"VVVVVVVVVVVVV##cBBBBBBBBMO                        o####@        @####o                                o############VVVVVVVVVVVVV",
"VVVVVVVVVVVVVVcBBBBBBBBBBM+                       o####@        @####o                               o############VVVVVVVVVVVVVV",
"VVVVVVVVVVVVVVmBBBBBBBBBBBM+                      X+@+@O        +@+++X                              o############VVVVVVVVVVVVVVV",
"VVVVVVVVVVVVVVVmBBBBBBBBBBM%.                                                                      O############VVVVVVVVVVVVVVVV",
"VVVVVVVVVVVVVVVVmBBBBBBBBM&##X                                                                    O#############VVVVVVVVVVVVVVVV",
"VVVVVVVVVVVVVVVVVmBBBBBBM&####O                                                                 .+#############VVVVVVVVVVVVVVVVV",
"VVVVVVVVVVVVVVVVVVmBBBBN&######+.                                                              X##############VVVVVVVVVVVVVVVVVV",
"VVVVVVVVVVVVVVVVVVVMBBM&########@X                                                            O##############VVVVVVVVVVVVVVVVVVV",
"VVVVVVVVVVVVVVVVVVVVNM>###########O.                                                        X@##############VVVVVVVVVVVVVVVVVVVV",
"VVVVVVVVVVVVVVVVVVVVV>#############@o                                                     .O###############VVVVVVVVVVVVVVVVVVVVV",
"VVVVVVVVVVVVVVVVVVVVVV###############+.                                                  o@###############VVVVVVVVVVVVVVVVVVVVVV",
"VVVVVVVVVVVVVVVVVVVVVVV################+.                                              X@################VVVVVVVVVVVVVVVVVVVVVVV",
"VVVVVVVVVVVVVVVVVVVVVVVV#################+X                                         .o@################VVVVVVVVVVVVVVVVVVVVVVVVV",
"VVVVVVVVVVVVVVVVVVVVVVVVV##################@o.                                    .O@#################VVVVVVVVVVVVVVVVVVVVVVVVVV",
"VVVVVVVVVVVVVVVVVVVVVVVVVVV###################+o.                              .O@###################VVVVVVVVVVVVVVVVVVVVVVVVVVV",
"VVVVVVVVVVVVVVVVVVVVVVVVVVVV#####################+oX.                      .oO@####################VVVVVVVVVVVVVVVVVVVVVVVVVVVVV",
"VVVVVVVVVVVVVVVVVVVVVVVVVVVVVV#######################++oXX.        . .XoO+@#######################VVVVVVVVVVVVVVVVVVVVVVVVVVVVVV",
"VVVVVVVVVVVVVVVVVVVVVVVVVVVVVVV##############################@@@@@@@############################VVVVVVVVVVVVVVVVVVVVVVVVVVVVVVVV",
"VVVVVVVVVVVVVVVVVVVVVVVVVVVVVVVVV##############################################################VVVVVVVVVVVVVVVVVVVVVVVVVVVVVVVVV",
"VVVVVVVVVVVVVVVVVVVVVVVVVVVVVVVVVVV##########################################################VVVVVVVVVVVVVVVVVVVVVVVVVVVVVVVVVVV",
"VVVVVVVVVVVVVVVVVVVVVVVVVVVVVVVVVVVVV######################################################VVVVVVVVVVVVVVVVVVVVVVVVVVVVVVVVVVVVV",
"VVVVVVVVVVVVVVVVVVVVVVVVVVVVVVVVVVVVVVV##################################################VVVVVVVVVVVVVVVVVVVVVVVVVVVVVVVVVVVVVVV",
"VVVVVVVVVVVVVVVVVVVVVVVVVVVVVVVVVVVVVVVVV#############################################VVVVVVVVVVVVVVVVVVVVVVVVVVVVVVVVVVVVVVVVVV",
"VVVVVVVVVVVVVVVVVVVVVVVVVVVVVVVVVVVVVVVVVVVV####################################%##VVVVVVVVVVVVVVVVVVVVVVVVVVVVVVVVVVVVVVVVVVVVV",
"VVVVVVVVVVVVVVVVVVVVVVVVVVVVVVVVVVVVVVVVVVVVVVVV################################VVVVVVVVVVVVVVVVVVVVVVVVVVVVVVVVVVVVVVVVVVVVVVVV",
"VVVVVVVVVVVVVVVVVVVVVVVVVVVVVVVVVVVVVVVVVVVVVVVVVVVV#######################VVVVVVVVVVVVVVVVVVVVVVVVVVVVVVVVVVVVVVVVVVVVVVVVVVVVV",
"VVVVVVVVVVVVVVVVVVVVVVVVVVVVVVVVVVVVVVVVVVVVVVVVVVVVVVVVVVVV#%######VVVVVVVVVVVVVVVVVVVVVVVVVVVVVVVVVVVVVVVVVVVVVVVVVVVVVVVVVVVV",
"VVVVVVVVVVVVVVVVVVVVVVVVVVVVVVVVVVVVVVVVVVVVVVVVVVVVVVVVVVVVVVVVVVVVVVVVVVVVVVVVVVVVVVVVVVVVVVVVVVVVVVVVVVVVVVVVVVVVVVVVVVVVVVVV"
};
